<mxfile host="app.diagrams.net" agent="Mozilla/5.0 (Windows NT 10.0; Win64; x64) AppleWebKit/537.36 (KHTML, like Gecko) Chrome/128.0.0.0 Safari/537.36" version="24.7.16">
  <diagram id="C5RBs43oDa-KdzZeNtuy" name="Page-1">
    <mxGraphModel dx="794" dy="446" grid="1" gridSize="10" guides="1" tooltips="1" connect="1" arrows="1" fold="1" page="1" pageScale="1" pageWidth="827" pageHeight="1169" math="0" shadow="0">
      <root>
        <mxCell id="WIyWlLk6GJQsqaUBKTNV-0" />
        <mxCell id="WIyWlLk6GJQsqaUBKTNV-1" parent="WIyWlLk6GJQsqaUBKTNV-0" />
        <mxCell id="_gyhNe-rSi3cXnz6es7Q-0" value="Start" style="ellipse;whiteSpace=wrap;html=1;" vertex="1" parent="WIyWlLk6GJQsqaUBKTNV-1">
          <mxGeometry x="260" y="70" width="120" height="80" as="geometry" />
        </mxCell>
        <mxCell id="_gyhNe-rSi3cXnz6es7Q-2" value="" style="endArrow=classic;html=1;rounded=0;exitX=0.444;exitY=0.975;exitDx=0;exitDy=0;exitPerimeter=0;" edge="1" parent="WIyWlLk6GJQsqaUBKTNV-1" source="_gyhNe-rSi3cXnz6es7Q-0">
          <mxGeometry width="50" height="50" relative="1" as="geometry">
            <mxPoint x="260" y="260" as="sourcePoint" />
            <mxPoint x="313" y="220" as="targetPoint" />
          </mxGeometry>
        </mxCell>
        <mxCell id="_gyhNe-rSi3cXnz6es7Q-3" value="Read Number &quot;n&quot;" style="rounded=0;whiteSpace=wrap;html=1;" vertex="1" parent="WIyWlLk6GJQsqaUBKTNV-1">
          <mxGeometry x="260" y="220" width="120" height="60" as="geometry" />
        </mxCell>
        <mxCell id="_gyhNe-rSi3cXnz6es7Q-7" value="" style="endArrow=classic;html=1;rounded=0;exitX=0.5;exitY=1;exitDx=0;exitDy=0;" edge="1" parent="WIyWlLk6GJQsqaUBKTNV-1" source="_gyhNe-rSi3cXnz6es7Q-3">
          <mxGeometry width="50" height="50" relative="1" as="geometry">
            <mxPoint x="295" y="350" as="sourcePoint" />
            <mxPoint x="320" y="340" as="targetPoint" />
          </mxGeometry>
        </mxCell>
        <mxCell id="_gyhNe-rSi3cXnz6es7Q-8" value="rem = n % 2" style="rounded=0;whiteSpace=wrap;html=1;" vertex="1" parent="WIyWlLk6GJQsqaUBKTNV-1">
          <mxGeometry x="260" y="340" width="120" height="60" as="geometry" />
        </mxCell>
        <mxCell id="_gyhNe-rSi3cXnz6es7Q-10" value="" style="endArrow=classic;html=1;rounded=0;exitX=0.583;exitY=1;exitDx=0;exitDy=0;exitPerimeter=0;" edge="1" parent="WIyWlLk6GJQsqaUBKTNV-1" source="_gyhNe-rSi3cXnz6es7Q-8">
          <mxGeometry width="50" height="50" relative="1" as="geometry">
            <mxPoint x="290" y="530" as="sourcePoint" />
            <mxPoint x="330" y="470" as="targetPoint" />
          </mxGeometry>
        </mxCell>
        <mxCell id="_gyhNe-rSi3cXnz6es7Q-11" value="if rem = 0" style="rhombus;whiteSpace=wrap;html=1;" vertex="1" parent="WIyWlLk6GJQsqaUBKTNV-1">
          <mxGeometry x="290" y="470" width="80" height="80" as="geometry" />
        </mxCell>
        <mxCell id="_gyhNe-rSi3cXnz6es7Q-12" value="" style="endArrow=classic;html=1;rounded=0;" edge="1" parent="WIyWlLk6GJQsqaUBKTNV-1">
          <mxGeometry width="50" height="50" relative="1" as="geometry">
            <mxPoint x="290" y="510" as="sourcePoint" />
            <mxPoint x="190" y="560" as="targetPoint" />
            <Array as="points">
              <mxPoint x="190" y="510" />
            </Array>
          </mxGeometry>
        </mxCell>
        <mxCell id="_gyhNe-rSi3cXnz6es7Q-24" value="if no" style="edgeLabel;html=1;align=center;verticalAlign=middle;resizable=0;points=[];" vertex="1" connectable="0" parent="_gyhNe-rSi3cXnz6es7Q-12">
          <mxGeometry x="0.0044" relative="1" as="geometry">
            <mxPoint as="offset" />
          </mxGeometry>
        </mxCell>
        <mxCell id="_gyhNe-rSi3cXnz6es7Q-14" value="" style="endArrow=classic;html=1;rounded=0;" edge="1" parent="WIyWlLk6GJQsqaUBKTNV-1">
          <mxGeometry width="50" height="50" relative="1" as="geometry">
            <mxPoint x="370" y="510" as="sourcePoint" />
            <mxPoint x="470" y="560" as="targetPoint" />
            <Array as="points">
              <mxPoint x="470" y="510" />
            </Array>
          </mxGeometry>
        </mxCell>
        <mxCell id="_gyhNe-rSi3cXnz6es7Q-25" value="if yes" style="edgeLabel;html=1;align=center;verticalAlign=middle;resizable=0;points=[];" vertex="1" connectable="0" parent="_gyhNe-rSi3cXnz6es7Q-14">
          <mxGeometry x="-0.1778" relative="1" as="geometry">
            <mxPoint as="offset" />
          </mxGeometry>
        </mxCell>
        <mxCell id="_gyhNe-rSi3cXnz6es7Q-15" value="&amp;nbsp;Print &quot;Odd&quot;" style="rounded=0;whiteSpace=wrap;html=1;" vertex="1" parent="WIyWlLk6GJQsqaUBKTNV-1">
          <mxGeometry x="120" y="560" width="120" height="60" as="geometry" />
        </mxCell>
        <mxCell id="_gyhNe-rSi3cXnz6es7Q-20" value="Print &quot;Even&quot;" style="rounded=0;whiteSpace=wrap;html=1;" vertex="1" parent="WIyWlLk6GJQsqaUBKTNV-1">
          <mxGeometry x="410" y="560" width="120" height="60" as="geometry" />
        </mxCell>
        <mxCell id="_gyhNe-rSi3cXnz6es7Q-21" value="" style="endArrow=classic;html=1;rounded=0;" edge="1" parent="WIyWlLk6GJQsqaUBKTNV-1">
          <mxGeometry width="50" height="50" relative="1" as="geometry">
            <mxPoint x="190" y="620" as="sourcePoint" />
            <mxPoint x="350" y="720" as="targetPoint" />
            <Array as="points">
              <mxPoint x="190" y="720" />
            </Array>
          </mxGeometry>
        </mxCell>
        <mxCell id="_gyhNe-rSi3cXnz6es7Q-22" value="" style="endArrow=classic;html=1;rounded=0;" edge="1" parent="WIyWlLk6GJQsqaUBKTNV-1">
          <mxGeometry width="50" height="50" relative="1" as="geometry">
            <mxPoint x="470" y="620" as="sourcePoint" />
            <mxPoint x="350" y="720" as="targetPoint" />
            <Array as="points">
              <mxPoint x="470" y="720" />
            </Array>
          </mxGeometry>
        </mxCell>
        <mxCell id="_gyhNe-rSi3cXnz6es7Q-31" value="" style="endArrow=classic;html=1;rounded=0;" edge="1" parent="WIyWlLk6GJQsqaUBKTNV-1">
          <mxGeometry width="50" height="50" relative="1" as="geometry">
            <mxPoint x="350" y="720" as="sourcePoint" />
            <mxPoint x="350" y="800" as="targetPoint" />
          </mxGeometry>
        </mxCell>
        <mxCell id="_gyhNe-rSi3cXnz6es7Q-33" value="END" style="ellipse;whiteSpace=wrap;html=1;" vertex="1" parent="WIyWlLk6GJQsqaUBKTNV-1">
          <mxGeometry x="294" y="800" width="120" height="80" as="geometry" />
        </mxCell>
      </root>
    </mxGraphModel>
  </diagram>
</mxfile>
